<svg width="24" height="24" viewBox="0 0 24 24" fill="none" xmlns="http://www.w3.org/2000/svg">
    <path fill-rule="evenodd" clip-rule="evenodd"
        d="M3 3L8.2124 7.23529H16.0239L21 3V12C21 16.9706 16.9706 21 12 21C7.02944 21 3 16.9706 3 12V3Z"
        fill="#BBC0CB" />
    <path fill-rule="evenodd" clip-rule="evenodd"
        d="M12.5 15C12.5 14.7239 12.2761 14.5 12 14.5C11.7239 14.5 11.5 14.7239 11.5 15C11.5 15.2233 11.0849 15.5 10.5 15.5C9.91509 15.5 9.5 15.2233 9.5 15C9.5 14.7239 9.27614 14.5 9 14.5C8.72386 14.5 8.5 14.7239 8.5 15C8.5 15.8813 9.42806 16.5 10.5 16.5C11.0855 16.5 11.6281 16.3154 12 16.0042C12.3719 16.3154 12.9145 16.5 13.5 16.5C14.5719 16.5 15.5 15.8813 15.5 15C15.5 14.7239 15.2761 14.5 15 14.5C14.7239 14.5 14.5 14.7239 14.5 15C14.5 15.2233 14.0849 15.5 13.5 15.5C12.9151 15.5 12.5 15.2233 12.5 15Z"
        fill="white" />
    <path fill-rule="evenodd" clip-rule="evenodd"
        d="M12 16L12.5528 14.8944C12.7583 14.4835 12.4594 14 12 14C11.5406 14 11.2417 14.4835 11.4472 14.8944L12 16Z"
        fill="white" />
</svg>    