<svg width="24" height="24" viewBox="0 0 24 24" fill="none" xmlns="http://www.w3.org/2000/svg">
    <ellipse cx="11.5093" cy="13" rx="9.49076" ry="8" fill="#BBC0CB" />
    <path fill-rule="evenodd" clip-rule="evenodd"
        d="M12.6299 13.62L12.5799 13.9H11.8499V13.49C11.8499 13.1833 11.8949 12.9167 11.9849 12.69C12.0749 12.4633 12.1865 12.2633 12.3199 12.09C12.4532 11.9167 12.5882 11.7517 12.7249 11.595C12.8615 11.4383 12.9749 11.2783 13.0649 11.115C13.1549 10.9517 13.1999 10.7667 13.1999 10.56C13.1999 10.3267 13.1199 10.1467 12.9599 10.02C12.7999 9.89334 12.5732 9.83 12.2799 9.83C12.0665 9.83 11.8399 9.86334 11.5999 9.93C11.3599 9.99667 11.1199 10.1033 10.8799 10.25V9.19C11.1132 9.05 11.3599 8.95 11.6199 8.89C11.8799 8.83 12.1299 8.8 12.3699 8.8C12.7899 8.8 13.1582 8.86834 13.4749 9.005C13.7915 9.14167 14.0382 9.335 14.2149 9.585C14.3915 9.835 14.4799 10.1233 14.4799 10.45C14.4799 10.7433 14.4232 11.0033 14.3099 11.23C14.1965 11.4567 14.0515 11.6633 13.8749 11.85C13.6982 12.0367 13.5199 12.22 13.3399 12.4C13.1599 12.58 13.0032 12.7667 12.8699 12.96C12.7365 13.1533 12.6565 13.3733 12.6299 13.62ZM12.9299 14.6V16H11.5199V14.6H12.9299Z"
        fill="white" />
</svg>    