<svg width="84" height="84" viewBox="0 0 84 84" fill="none" xmlns="http://www.w3.org/2000/svg">
<path d="M42 75.2356C60.3817 75.2356 75.283 60.3449 75.283 41.9763C75.283 23.6077 60.3817 8.71698 42 8.71698C23.6183 8.71698 8.71698 23.6077 8.71698 41.9763C8.71698 60.3449 23.6183 75.2356 42 75.2356Z" stroke="#747983" stroke-width="3" stroke-linecap="round" stroke-linejoin="round"/>
<path d="M44.0522 36.0936V26.0588C44.0522 25.5151 43.8361 24.9936 43.4513 24.6092C43.0666 24.2247 42.5448 24.0087 42.0007 24.0087C41.4566 24.0087 40.9348 24.2247 40.5501 24.6092C40.1654 24.9936 39.9492 25.5151 39.9492 26.0588V41.9644L44.0522 36.0936ZM44.0522 36.0936L43.1705 36.7342L44.0522 37.9477M44.0522 36.0936V37.9477M44.0522 37.9477H45.5522V36.8578M44.0522 37.9477L45.5522 36.8578M45.5522 36.8578L59.6352 26.6249C59.8503 26.4371 60.1024 26.2962 60.3752 26.2113C60.648 26.1265 60.9355 26.0995 61.2194 26.1321C61.5032 26.1648 61.7771 26.2563 62.0235 26.4008C62.2699 26.5454 62.4834 26.7398 62.6502 26.9715C62.8171 27.2033 62.9336 27.4673 62.9924 27.7467C63.0513 28.0261 63.0511 28.3147 62.9918 28.594C62.9325 28.8733 62.8155 29.1372 62.6483 29.3686C62.481 29.6001 62.2673 29.7942 62.0206 29.9383L45.5522 36.8578ZM41.4492 41.9687V41.9644V26.0588C41.4492 25.9132 41.5071 25.7735 41.6104 25.6702C41.7137 25.5669 41.8541 25.5087 42.0007 25.5087C42.1473 25.5087 42.2877 25.5669 42.391 25.6702C42.4944 25.7735 42.5522 25.9132 42.5522 26.0588V37.9477V40.8918L44.9339 39.1612L60.5169 27.8384L60.5712 27.799L60.6217 27.7549C60.6795 27.7044 60.7473 27.6665 60.8207 27.6436C60.8942 27.6208 60.9716 27.6135 61.0481 27.6223C61.1245 27.6311 61.1982 27.6558 61.2645 27.6946C61.3308 27.7335 61.3881 27.7857 61.4329 27.8479C61.4776 27.9101 61.5089 27.9808 61.5246 28.0557C61.5404 28.1307 61.5403 28.2079 61.5245 28.2826C61.5086 28.3573 61.4773 28.4281 61.4323 28.4903C61.3875 28.5524 61.33 28.6045 61.2637 28.6433L61.199 28.6811L61.1383 28.7252L42.3066 42.4222C42.2178 42.4824 42.1126 42.5147 42.0048 42.5144L42.0007 44.0144L41.9963 42.5144C41.9243 42.5146 41.8529 42.5006 41.7864 42.4731C41.7199 42.4457 41.6595 42.4055 41.6086 42.3547C41.5578 42.3039 41.5176 42.2436 41.4903 42.1775C41.463 42.1113 41.449 42.0403 41.4492 41.9687Z" fill="#FF6622" stroke="#FF6622" stroke-width="3"/>
</svg>
