<svg width="84" height="84" viewBox="0 0 84 84" fill="none" xmlns="http://www.w3.org/2000/svg">
<path d="M38.343 10.869C30.0085 11.7908 22.3172 15.7839 16.7709 22.0684C11.2247 28.353 8.22175 36.4778 8.34859 44.8562C8.58602 62.6318 23.7577 77.783 41.575 78.0347C49.9543 78.1521 58.0771 75.1474 64.3603 69.6063C70.6436 64.0652 74.6369 56.3847 75.5622 48.0617C75.6096 47.5957 75.5587 47.1249 75.4128 46.6797C75.2668 46.2346 75.0291 45.8249 74.715 45.4772C74.4009 45.1296 74.0173 44.8516 73.5889 44.6612C73.1606 44.4708 72.6971 44.3723 72.2284 44.372H44.6859C43.9876 44.3707 43.3184 44.0926 42.8251 43.5988C42.3318 43.1049 42.0547 42.4356 42.0547 41.7378V14.1956C42.0548 13.7255 41.9557 13.2607 41.764 12.8315C41.5723 12.4022 41.2922 12.0181 40.942 11.7043C40.5918 11.3904 40.1793 11.1538 39.7315 11.0099C39.2837 10.866 38.8106 10.818 38.343 10.869Z" stroke="#747983" stroke-width="3" stroke-linecap="round" stroke-linejoin="round"/>
<path d="M50.0793 8.25909V32.9542C50.0793 33.6262 50.3461 34.2709 50.8213 34.7466C51.2964 35.2223 51.941 35.4902 52.6135 35.4915H77.3262C77.6777 35.4933 78.0257 35.4221 78.3482 35.2823C78.6707 35.1425 78.9605 34.9372 79.1993 34.6795C79.4381 34.4217 79.6206 34.1172 79.7353 33.7851C79.8499 33.4531 79.8942 33.1008 79.8653 32.7508C79.2224 25.8046 76.169 19.3018 71.2338 14.3683C66.2985 9.43478 59.7922 6.38121 52.8413 5.73632C52.4907 5.70471 52.1373 5.74644 51.8037 5.85886C51.4701 5.97128 51.1636 6.15192 50.9038 6.38927C50.6439 6.62662 50.4364 6.91547 50.2944 7.2374C50.1525 7.55933 50.0792 7.90729 50.0793 8.25909V8.25909Z" fill="#FF6622" stroke="#FF6622" stroke-width="3" stroke-linecap="round" stroke-linejoin="round"/>
</svg>
