<svg width="70" height="70" viewBox="0 0 70 70" fill="none" xmlns="http://www.w3.org/2000/svg">
<path d="M35 68.2356C53.3817 68.2356 68.283 53.3449 68.283 34.9763C68.283 16.6077 53.3817 1.71698 35 1.71698C16.6183 1.71698 1.71698 16.6077 1.71698 34.9763C1.71698 53.3449 16.6183 68.2356 35 68.2356Z" stroke="#747983" stroke-width="3" stroke-linecap="round" stroke-linejoin="round"/>
<path d="M37.0522 29.0936V19.0588C37.0522 18.5151 36.8361 17.9936 36.4513 17.6092C36.0666 17.2247 35.5448 17.0087 35.0007 17.0087C34.4566 17.0087 33.9348 17.2247 33.5501 17.6092C33.1654 17.9936 32.9492 18.5151 32.9492 19.0588V34.9644L37.0522 29.0936ZM37.0522 29.0936L36.1705 29.7342L37.0522 30.9477M37.0522 29.0936V30.9477M37.0522 30.9477H38.5522V29.8578M37.0522 30.9477L38.5522 29.8578M38.5522 29.8578L52.6352 19.6249C52.8503 19.4371 53.1024 19.2962 53.3752 19.2113C53.648 19.1265 53.9355 19.0995 54.2194 19.1321C54.5032 19.1648 54.7771 19.2563 55.0235 19.4008C55.2699 19.5454 55.4834 19.7398 55.6502 19.9715C55.8171 20.2033 55.9336 20.4673 55.9924 20.7467C56.0513 21.0261 56.0511 21.3147 55.9918 21.594C55.9325 21.8733 55.8155 22.1372 55.6483 22.3686C55.481 22.6001 55.2673 22.7942 55.0206 22.9383L38.5522 29.8578ZM34.4492 34.9687V34.9644V19.0588C34.4492 18.9132 34.5071 18.7735 34.6104 18.6702C34.7137 18.5669 34.8541 18.5087 35.0007 18.5087C35.1473 18.5087 35.2877 18.5669 35.391 18.6702C35.4944 18.7735 35.5522 18.9132 35.5522 19.0588V30.9477V33.8918L37.9339 32.1612L53.5169 20.8384L53.5712 20.799L53.6217 20.7549C53.6795 20.7044 53.7473 20.6665 53.8207 20.6436C53.8942 20.6208 53.9716 20.6135 54.0481 20.6223C54.1245 20.6311 54.1982 20.6558 54.2645 20.6946C54.3308 20.7335 54.3881 20.7857 54.4329 20.8479C54.4776 20.9101 54.5089 20.9808 54.5246 21.0557C54.5404 21.1307 54.5403 21.2079 54.5245 21.2826C54.5086 21.3573 54.4773 21.4281 54.4323 21.4903C54.3875 21.5524 54.33 21.6045 54.2637 21.6433L54.199 21.6811L54.1383 21.7252L35.3066 35.4222C35.2178 35.4824 35.1126 35.5147 35.0048 35.5144L35.0007 37.0144L34.9963 35.5144C34.9243 35.5146 34.8529 35.5006 34.7864 35.4731C34.7199 35.4457 34.6595 35.4055 34.6086 35.3547C34.5578 35.3039 34.5176 35.2436 34.4903 35.1775C34.463 35.1113 34.449 35.0403 34.4492 34.9687Z" fill="#FF6622" stroke="#FF6622" stroke-width="3"/>
</svg>
