<svg width="76" height="76" viewBox="0 0 76 76" fill="none" xmlns="http://www.w3.org/2000/svg">
<g clip-path="url(#clip0_13613_4283)">
<path opacity="0.82" d="M36.0189 72.8679C54.1817 72.8679 68.9057 58.144 68.9057 39.9811C68.9057 21.8182 54.1817 7.0943 36.0189 7.0943C17.856 7.0943 3.13207 21.8182 3.13207 39.9811C3.13207 58.144 17.856 72.8679 36.0189 72.8679Z" stroke="#747983" stroke-width="3" stroke-linecap="round" stroke-linejoin="round"/>
<path d="M47.7685 23.8328C44.3884 21.353 40.2217 19.8867 35.7181 19.8867C24.4629 19.8867 15.305 29.0407 15.305 40.2936C15.305 51.5464 24.4618 60.7004 35.7181 60.7004C46.9744 60.7004 56.1311 51.5464 56.1311 40.2936C56.1311 35.7914 54.6633 31.6248 52.1828 28.2468L46.8506 33.3106C48.1258 35.3352 48.8673 37.7289 48.8673 40.2936C48.8673 47.5423 42.9679 53.4388 35.7181 53.4388C28.4682 53.4388 22.5689 47.5412 22.5689 40.2936C22.5689 33.0459 28.4682 27.1484 35.7181 27.1484C38.2836 27.1484 40.6769 27.8896 42.7032 29.1644L47.7696 23.8338L47.7685 23.8328Z" fill="#FF6622"/>
<path d="M35.137 37.1232L37.2591 34.8898C36.7694 34.75 36.2518 34.6736 35.717 34.6736C32.6124 34.6736 30.0964 37.1899 30.0964 40.2925C30.0964 43.3951 32.6134 45.9114 35.717 45.9114C38.8205 45.9114 41.3376 43.3951 41.3376 40.2925C41.3376 39.7567 41.2612 39.2393 41.1213 38.7487L38.8787 40.8777C38.0974 41.6555 37.1945 42.088 36.3455 42.088C35.689 42.088 35.0971 41.8427 34.6312 41.3769C34.0103 40.7562 33.7853 39.8848 34.0124 38.9843C34.1749 38.3399 34.5634 37.6955 35.1348 37.121L35.137 37.1232Z" fill="#747983"/>
<path d="M66.7148 0.7547L54.2296 13.2361L55.2024 17.3306L35.7902 37.7558C34.7442 38.8015 34.5386 39.9988 35.2769 40.7368C35.5685 41.0284 35.9387 41.1822 36.3487 41.1822C36.9588 41.1822 37.6368 40.8412 38.248 40.229L58.7041 20.8022L62.7611 21.7651L75.2464 9.28365L68.3527 7.64735L66.7148 0.7547Z" fill="#FF6622"/>
</g>
<defs>
<clipPath id="clip0_13613_4283">
<rect width="74.4906" height="74.4906" fill="white" transform="translate(0.754715 0.7547)"/>
</clipPath>
</defs>
</svg>
