<svg width="105" height="22" viewBox="0 0 105 22" fill="none" xmlns="http://www.w3.org/2000/svg">
<path d="M15.1412 16.7358C16.1535 16.7358 16.5412 15.9741 16.5412 15.169V3.33062C16.5412 1.91612 16.0027 0.719228 14.6243 0.719228C13.5474 0.719228 12.8582 1.19798 11.9967 3.33062L8.29213 12.4052H8.24905L4.60914 3.37415C3.74762 1.26327 3.07993 0.719228 1.95996 0.719228C0.581524 0.719228 0 1.91612 0 3.33062V15.169C0 15.9741 0.38768 16.7358 1.39997 16.7358C2.39071 16.7358 2.7784 15.9741 2.7784 15.169V6.05083H2.82148L6.26756 14.2767C6.93523 15.8653 7.43061 16.7358 8.27059 16.7358C9.08904 16.7358 9.60595 15.8653 10.2521 14.2767L13.7197 6.05083H13.7628V15.169C13.7628 15.9741 14.1505 16.7358 15.1412 16.7358ZM24.9564 16.9317C28.6178 16.9317 30.8793 14.6032 30.8793 11.0995C30.8793 7.53063 28.5748 5.28917 24.9564 5.28917C21.3165 5.28917 19.0119 7.53063 19.0119 11.0995C19.0119 14.6032 21.2949 16.9317 24.9564 16.9317ZM24.9564 14.1462C23.3626 14.1462 22.178 13.0146 22.178 11.0995C22.178 9.22803 23.2764 8.07466 24.9133 8.07466C26.6148 8.07466 27.7133 9.22803 27.7133 11.0995C27.7133 13.0146 26.6148 14.1462 24.9564 14.1462ZM42.2237 16.7358C43.3006 16.7358 43.7529 15.9306 43.7529 15.0602V10.7513C43.7529 7.0301 42.0083 5.28917 39.1653 5.28917C37.593 5.28917 36.1285 6.13788 35.5254 7.2042H35.4823V6.81249C35.4823 6.11612 35.1162 5.46327 34.2331 5.46327C33.3716 5.46327 32.9839 6.11612 32.9839 6.81249V15.0602C32.9839 15.9306 33.4577 16.7358 34.5346 16.7358C35.6115 16.7358 36.0638 15.9306 36.0638 15.0602L36.0854 11.0125C36.0854 9.20627 37.033 8.09643 38.5622 8.09643C40.1561 8.09643 40.673 9.42389 40.673 11.0125V15.0602C40.673 15.9306 41.1468 16.7358 42.2237 16.7358ZM52.0173 16.9317C53.1804 16.9317 54.3435 16.7358 55.0973 16.2353C55.6142 15.9089 55.9373 15.4301 55.9373 14.799C55.9373 14.1679 55.485 13.5804 54.6665 13.5804C53.7835 13.5804 53.4389 14.1026 51.9958 14.1026C49.7774 14.1026 48.9159 12.9928 48.9159 12.1659H54.6665C55.9157 12.1659 56.368 11.5565 56.368 10.4249C56.368 7.44358 54.5373 5.28917 51.242 5.28917C48.0113 5.28917 45.7282 7.59591 45.7282 11.0343C45.7282 14.5379 47.839 16.9317 52.0173 16.9317ZM53.2235 10.055H48.8943C48.8943 8.83633 49.9066 7.90057 51.1774 7.90057C52.685 7.90057 53.245 8.81456 53.245 9.72855C53.245 9.8156 53.245 9.96793 53.2235 10.055ZM60.3526 21.5669C62.4848 21.5669 63.8848 20.4353 65.3924 16.54L68.7954 7.61767C69.2477 6.42078 68.6878 5.46327 67.4816 5.46327C66.4478 5.46327 66.0817 6.1814 65.8663 6.85601L63.5402 14.2115H63.4756L61.1279 6.83425C60.9125 6.1814 60.5679 5.46327 59.6203 5.46327C58.4141 5.46327 57.7034 6.6384 58.0911 7.68296L61.8171 17.3234C61.4941 18.3897 60.9987 18.7596 60.0079 18.7596H59.7279C58.9741 18.7596 58.4141 19.2384 58.4141 20.0218C58.4141 20.6747 58.7157 21.1317 59.2757 21.3928C59.5556 21.5234 59.9218 21.5669 60.3526 21.5669ZM79.0045 16.9317C80.0167 16.9317 81.1798 16.7576 81.9552 16.257C82.4936 15.9306 82.8598 15.4736 82.8598 14.8208C82.8598 14.1462 82.429 13.5368 81.6752 13.5368C80.7921 13.5368 80.3398 13.9938 78.9398 13.9938C76.0322 13.9938 73.7707 12.0788 73.7707 8.74928C73.7707 5.44151 75.8814 3.50472 78.9398 3.50472C80.0814 3.50472 80.7706 3.93995 81.546 3.93995C82.3429 3.93995 82.8813 3.41767 82.8813 2.5472C82.8813 1.9814 82.5367 1.54617 82.0413 1.24151C81.2229 0.762749 79.9952 0.566895 79.0045 0.566895C73.7492 0.566895 70.6046 3.91819 70.6046 8.74928C70.6046 13.4716 73.9646 16.9317 79.0045 16.9317ZM94.0811 16.9317C95.3087 16.9317 95.8041 16.2135 95.8041 15.3648C95.8041 14.8643 95.5887 14.4291 95.0718 13.9938C94.6841 13.6674 94.5764 13.6021 94.5764 12.6446V11.6218C94.5764 8.31404 93.8657 5.28917 89.2781 5.28917C88.3304 5.28917 87.1889 5.41974 86.3274 5.78969C85.6382 6.07259 85.1428 6.61664 85.1428 7.29125C85.1428 8.13995 85.5951 8.57518 86.3489 8.57518C86.5858 8.57518 86.9089 8.48814 87.2535 8.40109C87.7274 8.29228 88.2658 8.16171 88.8042 8.16171C90.355 8.16171 91.6042 8.57519 91.6042 10.512C90.678 9.98969 89.6012 9.77208 88.5889 9.77208C86.2197 9.77208 84.2382 11.0995 84.2382 13.4716C84.2382 15.7348 85.7674 16.9317 88.3089 16.9317C89.7519 16.9317 91.0442 16.3223 91.9273 15.1907H91.9703C92.1426 15.9959 92.8749 16.9317 94.0811 16.9317ZM89.0196 14.4944C87.9643 14.4944 87.4258 14.1026 87.4258 13.2975C87.4258 12.4052 88.2658 11.9265 89.5581 11.9265C90.2473 11.9265 91.0011 12.1223 91.6042 12.514C91.475 13.5368 90.2688 14.4944 89.0196 14.4944ZM102.201 16.9317C103.299 16.9317 104.118 16.627 104.527 16.1047C104.764 15.8001 104.893 15.4083 104.893 14.9731C104.893 14.1897 104.376 13.7109 103.816 13.7109C103.235 13.7109 103.105 14.0156 102.546 14.0156C101.77 14.0156 101.641 13.4716 101.641 12.5793V8.33581H103.256C103.989 8.33581 104.592 7.72648 104.592 6.96482C104.592 6.22493 103.989 5.6156 103.256 5.6156H101.641V4.28814C101.641 3.57 101.296 2.96068 100.456 2.96068C99.8102 2.96068 99.3579 3.4612 99.0563 4.20109C98.884 4.61456 98.7763 5.09332 98.6902 5.6156H97.9794C97.2471 5.6156 96.6441 6.22493 96.6441 6.96482C96.6441 7.72648 97.2471 8.33581 97.9794 8.33581H98.561V12.7752C98.561 14.9731 99.5517 16.9317 102.201 16.9317Z" fill="black"/>
</svg>
