<svg width="150" height="53" viewBox="0 0 150 53" fill="none" xmlns="http://www.w3.org/2000/svg">
<path d="M19.7211 52.72C13.7691 52.72 9.11309 51.448 5.75309 48.904C2.44109 46.36 0.785094 42.832 0.785094 38.32C0.785094 34.768 1.86509 31.816 4.02509 29.464C6.18509 27.112 8.99309 25.72 12.4491 25.288V26.8C9.32909 26.128 6.80909 24.664 4.88909 22.408C3.01709 20.152 2.08109 17.416 2.08109 14.2C2.08109 9.928 3.64109 6.592 6.76109 4.192C9.92909 1.744 14.2491 0.519998 19.7211 0.519998C25.2411 0.519998 29.5611 1.744 32.6811 4.192C35.8491 6.592 37.4331 9.928 37.4331 14.2C37.4331 17.416 36.5211 20.176 34.6971 22.48C32.9211 24.784 30.4971 26.2 27.4251 26.728V25.288C30.8331 25.768 33.5691 27.184 35.6331 29.536C37.6971 31.84 38.7291 34.768 38.7291 38.32C38.7291 42.832 37.0491 46.36 33.6891 48.904C30.3771 51.448 25.7211 52.72 19.7211 52.72ZM19.7211 45.52C23.2251 45.52 25.8411 44.872 27.5691 43.576C29.2971 42.232 30.1611 40.264 30.1611 37.672C30.1611 35.08 29.2971 33.136 27.5691 31.84C25.8411 30.544 23.2251 29.896 19.7211 29.896C16.2651 29.896 13.6491 30.544 11.8731 31.84C10.1451 33.136 9.28109 35.08 9.28109 37.672C9.28109 40.264 10.1451 42.232 11.8731 43.576C13.6491 44.872 16.2651 45.52 19.7211 45.52ZM19.7211 22.696C22.6971 22.696 24.9531 22.024 26.4891 20.68C28.0731 19.336 28.8651 17.488 28.8651 15.136C28.8651 12.832 28.0731 11.032 26.4891 9.736C24.9531 8.392 22.6971 7.72 19.7211 7.72C16.7931 7.72 14.5371 8.392 12.9531 9.736C11.4171 11.032 10.6491 12.832 10.6491 15.136C10.6491 17.488 11.4171 19.336 12.9531 20.68C14.5371 22.024 16.7931 22.696 19.7211 22.696ZM47.485 52L72.109 5.776V9.016H45.181V1.24H80.677V8.152L57.637 52H47.485ZM107.577 52H99.8728L129.825 1.24H137.529L107.577 52ZM100.449 31.552C96.3688 31.552 93.1768 30.16 90.8728 27.376C88.5688 24.592 87.4168 20.8 87.4168 16C87.4168 11.152 88.5688 7.36 90.8728 4.624C93.2248 1.888 96.4168 0.519998 100.449 0.519998C104.529 0.519998 107.721 1.912 110.025 4.696C112.329 7.48 113.481 11.248 113.481 16C113.481 20.8 112.329 24.592 110.025 27.376C107.721 30.16 104.529 31.552 100.449 31.552ZM100.449 25.792C102.225 25.792 103.593 25 104.553 23.416C105.561 21.832 106.065 19.36 106.065 16C106.065 12.592 105.561 10.144 104.553 8.656C103.593 7.12 102.225 6.352 100.449 6.352C98.6728 6.352 97.2808 7.096 96.2728 8.584C95.3128 10.072 94.8328 12.544 94.8328 16C94.8328 19.456 95.3128 21.952 96.2728 23.488C97.2808 25.024 98.6728 25.792 100.449 25.792ZM136.953 52.72C132.873 52.72 129.681 51.328 127.377 48.544C125.073 45.712 123.921 41.896 123.921 37.096C123.921 32.248 125.073 28.48 127.377 25.792C129.729 23.056 132.921 21.688 136.953 21.688C141.033 21.688 144.225 23.08 146.529 25.864C148.833 28.6 149.985 32.344 149.985 37.096C149.985 41.896 148.833 45.712 146.529 48.544C144.225 51.328 141.033 52.72 136.953 52.72ZM136.953 46.888C138.729 46.888 140.097 46.12 141.057 44.584C142.065 43 142.569 40.504 142.569 37.096C142.569 33.688 142.065 31.24 141.057 29.752C140.097 28.216 138.729 27.448 136.953 27.448C135.177 27.448 133.785 28.216 132.777 29.752C131.817 31.24 131.337 33.688 131.337 37.096C131.337 40.552 131.817 43.048 132.777 44.584C133.785 46.12 135.177 46.888 136.953 46.888Z" fill="#FF6622"/>
</svg>
